<svg width="400" height="400" viewBox="0 0 400 400" fill="currentColor" xmlns="http://www.w3.org/2000/svg">
<path d="M0 0 C17.81074565 -0.07003234 35.62145565 -0.12295979 53.43230915 -0.15543652 C61.70190847 -0.17091578 69.97142233 -0.19202544 78.2409668 -0.22631836 C85.44738499 -0.25618841 92.65374129 -0.2755673 99.86021966 -0.28226548 C103.67721382 -0.28618184 107.4940309 -0.29540755 111.3109684 -0.31719017 C114.90193811 -0.33751764 118.49265742 -0.34384148 122.0836792 -0.33932304 C124.0333322 -0.34054489 125.98295779 -0.35670658 127.93254089 -0.3732605 C129.08940399 -0.36913651 130.24626709 -0.36501251 131.43818665 -0.36076355 C132.94946624 -0.36491162 132.94946624 -0.36491162 134.49127674 -0.36914349 C137.38699681 0.05694425 138.18042281 0.78716933 140 3 C140.33 3 140.66 3 141 3 C141 7.29 141 11.58 141 16 C140.67 16 140.34 16 140 16 C140 19.96 140 23.92 140 28 C140.66 28 141.32 28 142 28 C142 43.84 142 59.68 142 76 C141.01 76.495 141.01 76.495 140 77 C139.855625 77.66 139.71125 78.32 139.5625 79 C139.376875 79.66 139.19125 80.32 139 81 C138.01 81.33 137.02 81.66 136 82 C136.33 82.66 136.66 83.32 137 84 C98.33333333 84 59.66666667 84 21 84 C18.14321297 84.08210785 15.2923102 84.18693573 12.4375 84.3125 C11.65697266 84.33505859 10.87644531 84.35761719 10.07226562 84.38085938 C8.03996984 84.47730137 6.01646329 84.72907006 4 85 C3.34 85.99 2.68 86.98 2 88 C2.185625 87.195625 2.37125 86.39125 2.5625 85.5625 C2.706875 84.716875 2.85125 83.87125 3 83 C2.67 82.67 2.34 82.34 2 82 C1.95370581 89.3973076 1.91814574 96.79458407 1.89637566 104.19200706 C1.8859283 107.62675459 1.87175195 111.06140317 1.84912109 114.49609375 C1.82327937 118.44269638 1.81353507 122.38925863 1.8046875 126.3359375 C1.79436493 127.57242035 1.78404236 128.8089032 1.77340698 130.08285522 C1.77325592 131.22388702 1.77310486 132.36491882 1.77294922 133.54052734 C1.768508 134.548685 1.76406677 135.55684265 1.75949097 136.59555054 C1.76213773 139.18428264 1.76213773 139.18428264 4 141 C3.67 141.66 3.34 142.32 3 143 C30.06 142.67 57.12 142.34 85 142 C85.33 143.32 85.66 144.64 86 146 C86.66 146 87.32 146 88 146 C88.15453064 154.69328473 88.30270124 163.38664868 88.4429636 172.0801754 C88.50830249 176.11780061 88.57575427 180.15536653 88.64819336 184.19287109 C88.7181434 188.09612531 88.78233612 191.99943722 88.84269524 195.9028511 C88.86659648 197.38506068 88.89250145 198.86723948 88.92053413 200.34937668 C89.06972955 208.30954915 89.0016109 216.08828563 88 224 C85.03 224.33 82.06 224.66 79 225 C79 225.66 79 226.32 79 227 C53.92 227 28.84 227 3 227 C3.495 236.405 3.495 236.405 4 246 C4.16461268 254.72447183 4.16461268 254.72447183 4 257 C3.67 257.33 3.34 257.66 3 258 C2.76572222 260.01594582 2.58663876 262.038474 2.4375 264.0625 C2.31181641 265.71958984 2.31181641 265.71958984 2.18359375 267.41015625 C2.12300781 268.26480469 2.06242187 269.11945313 2 270 C2.33 270 2.66 270 3 270 C3 272.97 3 275.94 3 279 C1.68 279.66 0.36 280.32 -1 281 C-2.96817645 282.7538206 -4.83400403 284.50922923 -6.6875 286.375 C-7.43483398 287.09816406 -7.43483398 287.09816406 -8.19726562 287.8359375 C-10.75804264 290.39323992 -12.62405193 292.31046316 -13 296 C-13.55300781 296.06574219 -14.10601562 296.13148438 -14.67578125 296.19921875 C-17.97520419 297.33599472 -19.74332081 299.34665895 -22.1875 301.8125 C-23.06792969 302.68519531 -23.94835937 303.55789063 -24.85546875 304.45703125 C-26.92243553 306.90802464 -27.43599235 307.97486806 -28 311 C-32.13778385 315.80877582 -32.13778385 315.80877582 -34.97265625 316.4375 C-37.56551427 317.15690569 -38.43584637 318.24748757 -40.125 320.3125 C-40.62257812 320.90675781 -41.12015625 321.50101562 -41.6328125 322.11328125 C-43.05906121 323.96800448 -43.05906121 323.96800448 -44.03125 326.109375 C-45.41947439 328.81865164 -47.62217841 330.13171161 -50 332 C-50.721875 332.9075 -51.44375 333.815 -52.1875 334.75 C-52.785625 335.4925 -53.38375 336.235 -54 337 C-54.66 337 -55.32 337 -56 337 C-56.33 337.99 -56.66 338.98 -57 340 C-58.875 340.625 -58.875 340.625 -61 341 C-61.99 341.33 -62.98 341.66 -64 342 C-65.83140741 342.09377689 -67.66619987 342.12992957 -69.5 342.125 C-70.4590625 342.12757813 -71.418125 342.13015625 -72.40625 342.1328125 C-75 342 -75 342 -78 341 C-78.06860772 306.76504605 -78.12149904 272.53010775 -78.15319599 238.29509995 C-78.15694829 234.25695454 -78.16083124 230.21880927 -78.16479492 226.18066406 C-78.16558185 225.37671331 -78.16636878 224.57276256 -78.16717956 223.74444966 C-78.18024749 210.71249571 -78.20390893 197.6805813 -78.23145839 184.64865084 C-78.25947406 171.285117 -78.27616811 157.92160393 -78.28226548 144.55804193 C-78.28638992 136.30636569 -78.29943479 128.0548012 -78.3237494 119.80315934 C-78.33955928 114.15120334 -78.34441119 108.49930544 -78.34050413 102.84732892 C-78.33857512 99.58226368 -78.34323253 96.31743666 -78.35761642 93.05239677 C-78.37242598 89.51903504 -78.36899581 85.98616109 -78.36076355 82.45278931 C-78.36950207 81.4119499 -78.3782406 80.37111049 -78.38724393 79.29873049 C-78.38127078 78.35771499 -78.37529764 77.41669948 -78.36914349 76.44716835 C-78.37028265 75.63076964 -78.37142181 74.81437093 -78.37259549 73.97323287 C-78.24963898 73.32206602 -78.12668247 72.67089917 -78 72 C-76.515 71.01 -76.515 71.01 -75 70 C-73.64499081 68.68870078 -72.31328657 67.35308313 -71 66 C-70.360625 65.38125 -69.72125 64.7625 -69.0625 64.125 C-67.39236368 62.40425349 -65.9277876 60.68205241 -64.4375 58.8125 C-62 56 -62 56 -59 55 C-57.83333333 53.08333333 -57.83333333 53.08333333 -57 51 C-56 49 -56 49 -53 48 C-52.34 47.34 -51.68 46.68 -51 46 C-50.34 45.34 -49.68 44.68 -49 44 C-48.53029785 43.52022705 -48.0605957 43.0404541 -47.57666016 42.54614258 C-46.03236795 41.03174144 -44.43420983 39.64650908 -42.7734375 38.26171875 C-38.88166434 34.94828642 -35.23982419 31.42347044 -31.625 27.8125 C-30.99722656 27.19697266 -30.36945313 26.58144531 -29.72265625 25.94726562 C-29.12582031 25.35236328 -28.52898437 24.75746094 -27.9140625 24.14453125 C-27.3773291 23.61190674 -26.8405957 23.07928223 -26.28759766 22.53051758 C-24.76611926 20.91293621 -24.76611926 20.91293621 -24 18 C-22.66966958 17.32736102 -21.33563214 16.66204909 -20 16 C-18.22166506 14.40742047 -16.49553496 12.75547904 -14.8125 11.0625 C-13.93207031 10.18722656 -13.05164063 9.31195313 -12.14453125 8.41015625 C-9.8196831 6.11635158 -9.8196831 6.11635158 -9 3 C-4.545 2.505 -4.545 2.505 0 2 C0 1.34 0 0.68 0 0 Z M-77 73 C-77 146.92 -77 220.84 -77 297 C-76.67 297 -76.34 297 -76 297 C-76 223.08 -76 149.16 -76 73 C-76.33 73 -76.66 73 -77 73 Z M1 144 C2 146 2 146 2 146 Z M86 154 C86 176.11 86 198.22 86 221 C86.33 221 86.66 221 87 221 C87 198.89 87 176.78 87 154 C86.67 154 86.34 154 86 154 Z M3 225 C3 225.33 3 225.66 3 226 C27.75 226 52.5 226 78 226 C78 225.67 78 225.34 78 225 C53.25 225 28.5 225 3 225 Z M1 227 C0.94205188 231.27077656 0.90642126 235.54145236 0.875 239.8125 C0.85824219 241.02744141 0.84148437 242.24238281 0.82421875 243.49414062 C0.81777344 244.65751953 0.81132812 245.82089844 0.8046875 247.01953125 C0.79421387 248.09307861 0.78374023 249.16662598 0.77294922 250.27270508 C0.79684457 253.21933741 0.79684457 253.21933741 3 256 C2.67 246.43 2.34 236.86 2 227 C1.67 227 1.34 227 1 227 Z M-77 298 C-77 308.89 -77 319.78 -77 331 C-76.67 331 -76.34 331 -76 331 C-76 320.11 -76 309.22 -76 298 C-76.33 298 -76.66 298 -77 298 Z " fill="#0697EC" transform="translate(227,28)"/>
<path d="M0 0 C2.86724686 0.57344937 3.8614515 0.8614515 6 3 C6.33 3 6.66 3 7 3 C7 51.84 7 100.68 7 151 C6.67 151 6.34 151 6 151 C5.67 178.06 5.34 205.12 5 233 C4.34 233.33 3.68 233.66 3 234 C3 234.33 3 234.66 3 235 C-21.33333333 235 -45.66666667 235 -70 235 C-68.02 234.01 -68.02 234.01 -66 233 C-67.65 232.67 -69.3 232.34 -71 232 C-71.33 232.99 -71.66 233.98 -72 235 C-73.34160524 230.97518427 -73.13404772 227.10388006 -73.12025452 222.907547 C-73.12110894 221.96576668 -73.12196337 221.02398636 -73.12284368 220.05366725 C-73.12449639 216.88447327 -73.11898049 213.71533172 -73.11352539 210.54614258 C-73.11324345 208.27971905 -73.11340139 206.01329543 -73.1139679 203.74687195 C-73.11425559 197.581949 -73.1083633 191.41704538 -73.10139394 185.25212693 C-73.09515583 178.81389351 -73.09455624 172.37565968 -73.09336853 165.93742371 C-73.09061046 155.12730534 -73.08435812 144.31719493 -73.07543945 133.50708008 C-73.06626222 122.37198929 -73.05918291 111.23690044 -73.05493164 100.10180664 C-73.05466892 99.41558583 -73.05440619 98.72936502 -73.05413551 98.02234963 C-73.05283048 94.57982516 -73.05156677 91.13730067 -73.05032361 87.69477618 C-73.03995475 59.12984502 -73.02151846 30.5649251 -73 2 C-48.91 2 -24.82 2 0 2 C0 1.34 0 0.68 0 0 Z " fill="#0596EB" transform="translate(114,137)"/>
<path d="M0 0 C17.81074565 -0.07003234 35.62145565 -0.12295979 53.43230915 -0.15543652 C61.70190847 -0.17091578 69.97142233 -0.19202544 78.2409668 -0.22631836 C85.44738499 -0.25618841 92.65374129 -0.2755673 99.86021966 -0.28226548 C103.67721382 -0.28618184 107.4940309 -0.29540755 111.3109684 -0.31719017 C114.90193811 -0.33751764 118.49265742 -0.34384148 122.0836792 -0.33932304 C124.0333322 -0.34054489 125.98295779 -0.35670658 127.93254089 -0.3732605 C129.08940399 -0.36913651 130.24626709 -0.36501251 131.43818665 -0.36076355 C132.94946624 -0.36491162 132.94946624 -0.36491162 134.49127674 -0.36914349 C137.38699681 0.05694425 138.18042281 0.78716933 140 3 C140.33 3 140.66 3 141 3 C141 7.29 141 11.58 141 16 C140.67 16 140.34 16 140 16 C140 19.96 140 23.92 140 28 C140.66 28 141.32 28 142 28 C142 43.84 142 59.68 142 76 C141.01 76.495 141.01 76.495 140 77 C139.855625 77.66 139.71125 78.32 139.5625 79 C139.376875 79.66 139.19125 80.32 139 81 C138.01 81.33 137.02 81.66 136 82 C136.33 82.66 136.66 83.32 137 84 C98.33333333 84 59.66666667 84 21 84 C18.14321297 84.08210785 15.2923102 84.18693573 12.4375 84.3125 C11.65697266 84.33505859 10.87644531 84.35761719 10.07226562 84.38085938 C8.03996984 84.47730137 6.01646329 84.72907006 4 85 C3.34 85.99 2.68 86.98 2 88 C2.185625 87.195625 2.37125 86.39125 2.5625 85.5625 C2.706875 84.716875 2.85125 83.87125 3 83 C2.67 82.67 2.34 82.34 2 82 C1.95370581 89.3973076 1.91814574 96.79458407 1.89637566 104.19200706 C1.8859283 107.62675459 1.87175195 111.06140317 1.84912109 114.49609375 C1.82327937 118.44269638 1.81353507 122.38925863 1.8046875 126.3359375 C1.79436493 127.57242035 1.78404236 128.8089032 1.77340698 130.08285522 C1.77325592 131.22388702 1.77310486 132.36491882 1.77294922 133.54052734 C1.768508 134.548685 1.76406677 135.55684265 1.75949097 136.59555054 C1.76213773 139.18428264 1.76213773 139.18428264 4 141 C3.67 141.66 3.34 142.32 3 143 C30.06 142.67 57.12 142.34 85 142 C85.33 143.32 85.66 144.64 86 146 C86.66 146 87.32 146 88 146 C88.15453064 154.69328473 88.30270124 163.38664868 88.4429636 172.0801754 C88.50830249 176.11780061 88.57575427 180.15536653 88.64819336 184.19287109 C88.7181434 188.09612531 88.78233612 191.99943722 88.84269524 195.9028511 C88.86659648 197.38506068 88.89250145 198.86723948 88.92053413 200.34937668 C89.06972955 208.30954915 89.0016109 216.08828563 88 224 C85.03 224.33 82.06 224.66 79 225 C79 225.66 79 226.32 79 227 C53.92 227 28.84 227 3 227 C3.495 236.405 3.495 236.405 4 246 C4.16461268 254.72447183 4.16461268 254.72447183 4 257 C3.67 257.33 3.34 257.66 3 258 C2.76572222 260.01594582 2.58663876 262.038474 2.4375 264.0625 C2.31181641 265.71958984 2.31181641 265.71958984 2.18359375 267.41015625 C2.12300781 268.26480469 2.06242187 269.11945313 2 270 C2.33 270 2.66 270 3 270 C3 272.97 3 275.94 3 279 C1.68 279.66 0.36 280.32 -1 281 C-2.96817645 282.7538206 -4.83400403 284.50922923 -6.6875 286.375 C-7.43483398 287.09816406 -7.43483398 287.09816406 -8.19726562 287.8359375 C-10.75804264 290.39323992 -12.62405193 292.31046316 -13 296 C-13.55300781 296.06574219 -14.10601562 296.13148438 -14.67578125 296.19921875 C-17.97520419 297.33599472 -19.74332081 299.34665895 -22.1875 301.8125 C-23.06792969 302.68519531 -23.94835937 303.55789063 -24.85546875 304.45703125 C-26.92243553 306.90802464 -27.43599235 307.97486806 -28 311 C-32.13778385 315.80877582 -32.13778385 315.80877582 -34.97265625 316.4375 C-37.56551427 317.15690569 -38.43584637 318.24748757 -40.125 320.3125 C-40.62257812 320.90675781 -41.12015625 321.50101562 -41.6328125 322.11328125 C-43.05906121 323.96800448 -43.05906121 323.96800448 -44.03125 326.109375 C-45.41947439 328.81865164 -47.62217841 330.13171161 -50 332 C-50.721875 332.9075 -51.44375 333.815 -52.1875 334.75 C-52.785625 335.4925 -53.38375 336.235 -54 337 C-54.66 337 -55.32 337 -56 337 C-56.33 337.99 -56.66 338.98 -57 340 C-58.875 340.625 -58.875 340.625 -61 341 C-61.99 341.33 -62.98 341.66 -64 342 C-65.83140741 342.09377689 -67.66619987 342.12992957 -69.5 342.125 C-70.4590625 342.12757813 -71.418125 342.13015625 -72.40625 342.1328125 C-75 342 -75 342 -78 341 C-78.06860772 306.76504605 -78.12149904 272.53010775 -78.15319599 238.29509995 C-78.15694829 234.25695454 -78.16083124 230.21880927 -78.16479492 226.18066406 C-78.16558185 225.37671331 -78.16636878 224.57276256 -78.16717956 223.74444966 C-78.18024749 210.71249571 -78.20390893 197.6805813 -78.23145839 184.64865084 C-78.25947406 171.285117 -78.27616811 157.92160393 -78.28226548 144.55804193 C-78.28638992 136.30636569 -78.29943479 128.0548012 -78.3237494 119.80315934 C-78.33955928 114.15120334 -78.34441119 108.49930544 -78.34050413 102.84732892 C-78.33857512 99.58226368 -78.34323253 96.31743666 -78.35761642 93.05239677 C-78.37242598 89.51903504 -78.36899581 85.98616109 -78.36076355 82.45278931 C-78.36950207 81.4119499 -78.3782406 80.37111049 -78.38724393 79.29873049 C-78.38127078 78.35771499 -78.37529764 77.41669948 -78.36914349 76.44716835 C-78.37028265 75.63076964 -78.37142181 74.81437093 -78.37259549 73.97323287 C-78.24963898 73.32206602 -78.12668247 72.67089917 -78 72 C-76.515 71.01 -76.515 71.01 -75 70 C-73.64499081 68.68870078 -72.31328657 67.35308313 -71 66 C-70.360625 65.38125 -69.72125 64.7625 -69.0625 64.125 C-67.39236368 62.40425349 -65.9277876 60.68205241 -64.4375 58.8125 C-62 56 -62 56 -59 55 C-57.83333333 53.08333333 -57.83333333 53.08333333 -57 51 C-56 49 -56 49 -53 48 C-52.34 47.34 -51.68 46.68 -51 46 C-50.34 45.34 -49.68 44.68 -49 44 C-48.53029785 43.52022705 -48.0605957 43.0404541 -47.57666016 42.54614258 C-46.03236795 41.03174144 -44.43420983 39.64650908 -42.7734375 38.26171875 C-38.88166434 34.94828642 -35.23982419 31.42347044 -31.625 27.8125 C-30.99722656 27.19697266 -30.36945313 26.58144531 -29.72265625 25.94726562 C-29.12582031 25.35236328 -28.52898437 24.75746094 -27.9140625 24.14453125 C-27.3773291 23.61190674 -26.8405957 23.07928223 -26.28759766 22.53051758 C-24.76611926 20.91293621 -24.76611926 20.91293621 -24 18 C-22.66966958 17.32736102 -21.33563214 16.66204909 -20 16 C-18.22166506 14.40742047 -16.49553496 12.75547904 -14.8125 11.0625 C-13.93207031 10.18722656 -13.05164063 9.31195313 -12.14453125 8.41015625 C-9.8196831 6.11635158 -9.8196831 6.11635158 -9 3 C-4.545 2.505 -4.545 2.505 0 2 C0 1.34 0 0.68 0 0 Z M-10 12 C-11.65486223 13.01941591 -13.32247725 14.01832022 -15 15 C-16.91827816 16.74058833 -18.75099695 18.48729713 -20.56884766 20.32592773 C-21.10120529 20.85638702 -21.63356293 21.38684631 -22.18205261 21.93338013 C-23.93097218 23.67861142 -25.6726138 25.43091024 -27.4140625 27.18359375 C-28.6324778 28.40320209 -29.85126402 29.62243997 -31.07040405 30.84132385 C-33.62036076 33.39284207 -36.1669307 35.94767655 -38.7109375 38.50512695 C-41.96859071 41.77977838 -45.23279656 45.04779985 -48.49933815 48.31358242 C-51.01494349 50.82945994 -53.52793214 53.34793733 -56.04005051 55.86729622 C-57.24271354 57.07313637 -58.44597873 58.27837628 -59.64986038 59.4829998 C-61.33241673 61.16772934 -63.01163646 62.8557143 -64.68994141 64.54467773 C-65.43341576 65.28747231 -65.43341576 65.28747231 -66.19190979 66.04527283 C-71.76882181 71.41435371 -71.76882181 71.41435371 -73.36914349 78.63079453 C-73.37511663 79.56185855 -73.38108978 80.49292257 -73.38724393 81.45220065 C-73.3785054 82.47165058 -73.36976688 83.49110052 -73.36076355 84.54144287 C-73.36460846 86.16978148 -73.36460846 86.16978148 -73.36853105 87.83101583 C-73.37348583 91.48091784 -73.35694762 95.13040932 -73.34057617 98.78027344 C-73.33973027 101.39166758 -73.34020432 104.00306245 -73.34190369 106.61445618 C-73.34347722 112.24296088 -73.33405975 117.87136131 -73.31719017 123.49983978 C-73.29281548 131.63767058 -73.28499647 139.77545091 -73.2812262 147.91331425 C-73.27465931 161.11622898 -73.2546917 174.31908812 -73.22631836 187.52197266 C-73.19878394 200.34781618 -73.17754734 213.17364461 -73.16479492 225.99951172 C-73.16400675 226.79001465 -73.16321858 227.58051759 -73.16240653 228.39497516 C-73.15849143 232.36067141 -73.1547003 236.32636776 -73.15097082 240.29206419 C-73.11986751 273.19474993 -73.06702525 306.09736753 -73 339 C-71.38437566 339.04560306 -69.7683834 339.07831204 -68.15234375 339.10546875 C-67.25249756 339.12504639 -66.35265137 339.14462402 -65.42553711 339.16479492 C-62.84017313 339.197144 -62.84017313 339.197144 -60.5625 337.3125 C-58.96277513 335.00498994 -58.96277513 335.00498994 -57.5625 332.5 C-56 330 -56 330 -53.5625 328.0625 C-50.80672164 326.05582621 -50.80672164 326.05582621 -48.875 322.8125 C-47 320 -47 320 -44 319 C-43.26676204 316.98491642 -43.26676204 316.98491642 -43 315 C-42.01 315 -41.02 315 -40 315 C-36.26689385 311.65985239 -33.18108921 307.8507922 -30 304 C-29.401875 303.4225 -28.80375 302.845 -28.1875 302.25 C-26.77041685 301.04569007 -26.77041685 301.04569007 -27 299 C-26.14849365 298.63527588 -26.14849365 298.63527588 -25.27978516 298.26318359 C-22.5711415 296.76237804 -20.71635855 294.97549425 -18.5234375 292.7890625 C-17.688125 291.95632813 -16.8528125 291.12359375 -15.9921875 290.265625 C-15.12851563 289.39421875 -14.26484375 288.5228125 -13.375 287.625 C-12.50359375 286.76132812 -11.6321875 285.89765625 -10.734375 285.0078125 C-9.48527344 283.75484375 -9.48527344 283.75484375 -8.2109375 282.4765625 C-7.07084229 281.3330835 -7.07084229 281.3330835 -5.90771484 280.16650391 C-2.63428814 276.44902393 -1.74896766 273.71266123 -1.77294922 268.77246094 C-1.77310028 267.73168396 -1.77325134 266.69090698 -1.77340698 265.61859131 C-1.78372955 264.50179993 -1.79405212 263.38500854 -1.8046875 262.234375 C-1.8075174 261.08584045 -1.81034729 259.93730591 -1.81326294 258.75396729 C-1.82445737 255.08587219 -1.84956096 251.4180213 -1.875 247.75 C-1.88503074 245.26302436 -1.89415642 242.77604489 -1.90234375 240.2890625 C-1.92439432 234.19262502 -1.95786475 228.09632996 -2 222 C-0.96239029 221.98969254 0.07521942 221.97938507 1.14427185 221.96876526 C10.90082473 221.87120396 20.65731137 221.76848673 30.41375637 221.66066074 C35.43019298 221.60538761 40.44663537 221.55196074 45.46313477 221.50268555 C50.30014866 221.45510657 55.13708931 221.40276637 59.97401619 221.34705925 C61.8236618 221.32660629 63.67332752 221.30789819 65.52300835 221.29092598 C68.10452454 221.2669468 70.68590097 221.23688382 73.26733398 221.20532227 C74.42610802 221.19668907 74.42610802 221.19668907 75.60829163 221.18788147 C79.09683282 221.45320846 79.09683282 221.45320846 82 220 C82.09432985 217.79132169 82.11742431 215.57958479 82.11352539 213.36889648 C82.11374443 212.32992218 82.11374443 212.32992218 82.1139679 211.2699585 C82.11326874 208.97030554 82.10547628 206.67073263 82.09765625 204.37109375 C82.09579208 202.78068588 82.09436817 201.19027743 82.09336853 199.59986877 C82.08954329 195.4060407 82.07971295 191.21224705 82.06866455 187.01843262 C82.05845057 182.74211086 82.05387094 178.46578356 82.04882812 174.18945312 C82.03809069 165.79295292 82.02101419 157.39648074 82 149 C80.48450058 148.9845388 80.48450058 148.9845388 78.93838501 148.96876526 C69.43231734 148.87114921 59.92631685 148.76842648 50.42035866 148.66066074 C45.53286651 148.60541826 40.64536838 148.55199614 35.7578125 148.50268555 C31.04398654 148.45506155 26.33023473 148.40271945 21.61649704 148.34705925 C19.81512668 148.32662678 18.01373599 148.30791519 16.21232986 148.29092598 C13.69567741 148.26690169 11.17916577 148.2368445 8.66259766 148.20532227 C7.91237839 148.1995668 7.16215912 148.19381134 6.38920593 148.18788147 C1.22810432 148.11405216 1.22810432 148.11405216 -1 147 C-2.45372798 140.18393582 -2.04898258 132.96357798 -1.97875977 126.02685547 C-1.95184127 121.99285938 -2.13622463 118.07164685 -2.5625 114.0625 C-3.14069721 107.34520888 -2.99944994 100.66913216 -2.8125 93.9375 C-2.79453369 92.82963135 -2.77656738 91.7217627 -2.75805664 90.58032227 C-2.70186157 89.0072229 -2.70186157 89.0072229 -2.64453125 87.40234375 C-2.61721924 86.45866943 -2.58990723 85.51499512 -2.56176758 84.54272461 C-1.82657067 81.21500807 -0.63046775 80.1329428 2 78 C4.56930161 77.49219131 4.56930161 77.49219131 7.5302124 77.48101807 C9.21708412 77.46014885 9.21708412 77.46014885 10.93803406 77.43885803 C12.16730118 77.4438884 13.3965683 77.44891876 14.66308594 77.45410156 C16.60979942 77.43859505 16.60979942 77.43859505 18.59584045 77.42277527 C22.1513601 77.39490312 25.70653201 77.39151083 29.26214504 77.39249516 C32.97914363 77.38936705 36.69598536 77.36375105 40.41290283 77.34051514 C47.44992024 77.29994357 54.48684495 77.27961177 61.52396131 77.26654124 C69.53607669 77.25067506 77.54803425 77.21226111 85.56005812 77.17194796 C102.03999337 77.08953323 118.51989539 77.03545103 135 77 C135.63639544 71.83667394 136.1247788 66.77258302 136.11352539 61.56225586 C136.11344986 60.38171127 136.11337433 59.20116669 136.11329651 57.98484802 C136.10813522 56.74074661 136.10297394 55.4966452 136.09765625 54.21484375 C136.0962413 52.91801163 136.09482635 51.6211795 136.09336853 50.28504944 C136.08958317 46.86729949 136.07978777 43.44959325 136.06866455 40.03186035 C136.05836397 36.53231395 136.05385254 33.03276037 136.04882812 29.53320312 C136.03816119 22.68878433 136.0211337 15.84439427 136 9 C132.67636341 7.01318189 130.15288353 6.74357556 126.30688477 6.72584534 C125.14601349 6.71587021 123.98514221 6.70589508 122.78909302 6.69561768 C121.51935638 6.694953 120.24961975 6.69428833 118.94140625 6.69360352 C117.58771305 6.68598026 116.23402417 6.67755247 114.88034058 6.66838074 C111.20686392 6.64645009 107.53347048 6.63763925 103.85993576 6.63255429 C101.56498986 6.6289102 99.27006576 6.62267 96.97512817 6.6155529 C88.96941164 6.59106716 80.96375987 6.57800759 72.95800781 6.57446289 C65.4938161 6.57082425 58.03003472 6.54090354 50.56596851 6.49905831 C44.15737146 6.46438876 37.74891068 6.44891507 31.34022045 6.44821686 C27.51254072 6.44742314 23.68527941 6.43864135 19.85769653 6.41021919 C16.25911124 6.38409373 12.66129302 6.38180136 9.0626564 6.39787483 C7.11202441 6.40056118 5.16140772 6.37847001 3.21090698 6.35568237 C1.46960007 6.37032784 1.46960007 6.37032784 -0.30688477 6.38526917 C-1.82005028 6.38225217 -1.82005028 6.38225217 -3.36378479 6.37917423 C-6.96130077 7.22638527 -7.92177869 9.04180567 -10 12 Z M-77 73 C-77 146.92 -77 220.84 -77 297 C-76.67 297 -76.34 297 -76 297 C-76 223.08 -76 149.16 -76 73 C-76.33 73 -76.66 73 -77 73 Z M1 144 C2 146 2 146 2 146 Z M86 154 C86 176.11 86 198.22 86 221 C86.33 221 86.66 221 87 221 C87 198.89 87 176.78 87 154 C86.67 154 86.34 154 86 154 Z M3 225 C3 225.33 3 225.66 3 226 C27.75 226 52.5 226 78 226 C78 225.67 78 225.34 78 225 C53.25 225 28.5 225 3 225 Z M1 227 C0.94205188 231.27077656 0.90642126 235.54145236 0.875 239.8125 C0.85824219 241.02744141 0.84148437 242.24238281 0.82421875 243.49414062 C0.81777344 244.65751953 0.81132812 245.82089844 0.8046875 247.01953125 C0.79421387 248.09307861 0.78374023 249.16662598 0.77294922 250.27270508 C0.79684457 253.21933741 0.79684457 253.21933741 3 256 C2.67 246.43 2.34 236.86 2 227 C1.67 227 1.34 227 1 227 Z M-77 298 C-77 308.89 -77 319.78 -77 331 C-76.67 331 -76.34 331 -76 331 C-76 320.11 -76 309.22 -76 298 C-76.33 298 -76.66 298 -77 298 Z " fill="#1692D9" transform="translate(227,28)"/>
<path d="M0 0 C0.99 0.495 0.99 0.495 2 1 C2 1.66 2 2.32 2 3 C2.99 3.33 3.98 3.66 5 4 C5.12375 5.051875 5.2475 6.10375 5.375 7.1875 C5.91140782 10.45958771 6.63880035 13.00536076 8 16 C8.66 16 9.32 16 10 16 C10 17.98 10 19.96 10 22 C10.33 22 10.66 22 11 22 C11.05429959 23.74965358 11.09292823 25.49979787 11.125 27.25 C11.14820312 28.22453125 11.17140625 29.1990625 11.1953125 30.203125 C10.99522312 33.06840491 10.41460873 34.54801153 9 37 C7.93888735 39.8341228 7.93888735 39.8341228 7.75 42.25 C6.69280878 46.1263678 4.66540137 49.01506221 2 52 C0.67432801 52.68177416 -0.65753688 53.35191436 -2 54 C-2.28875 54.845625 -2.5775 55.69125 -2.875 56.5625 C-3.24625 57.366875 -3.6175 58.17125 -4 59 C-6.5625 59.5625 -6.5625 59.5625 -10 60 C-12.29947454 60.93517362 -14.52059999 61.97968484 -16.75390625 63.0625 C-25.47353371 66.70199668 -34.79336418 65.66356121 -43.34765625 62.21484375 C-53.38043478 57.61956522 -53.38043478 57.61956522 -57 54 C-57.825 53.38125 -58.65 52.7625 -59.5 52.125 C-61.90962444 50.07681923 -62.7757703 48.82514547 -64 46 C-64.66 45.34 -65.32 44.68 -66 44 C-70.64869324 33.29521097 -70.15557251 21.76820972 -66 11 C-63.64856721 6.195239 -61.86241769 3.32048052 -57 1 C-55.61767557 -0.62626404 -54.28062485 -2.2925002 -53 -4 C-50.77810176 -6.22189824 -48.91517292 -6.92598892 -46 -8 C-46 -8.66 -46 -9.32 -46 -10 C-28.26107325 -13.70616862 -14.4649996 -10.8487497 0 0 Z M-65 11 C-64 13 -64 13 -64 13 Z M-66 14 C-65 17 -65 17 -65 17 Z M-67 17 C-66 20 -66 20 -66 20 Z M8 19 C9 21 9 21 9 21 Z M-68 22 C-68 24.64 -68 27.28 -68 30 C-67.67 30 -67.34 30 -67 30 C-67 27.36 -67 24.72 -67 22 C-67.33 22 -67.66 22 -68 22 Z M9 28 C9 29.65 9 31.3 9 33 C9.33 33 9.66 33 10 33 C10 31.35 10 29.7 10 28 C9.67 28 9.34 28 9 28 Z M-67 32 C-67 33.65 -67 35.3 -67 37 C-66.67 37 -66.34 37 -66 37 C-66 35.35 -66 33.7 -66 32 C-66.33 32 -66.66 32 -67 32 Z M8 33 C9 35 9 35 9 35 Z M-66 37 C-65 40 -65 40 -65 40 Z M6 40 C7 42 7 42 7 42 Z M-65 41 C-64 43 -64 43 -64 43 Z " fill="#0397EB" transform="translate(109,42)"/>
<path d="M0 0 C2.86724686 0.57344937 3.8614515 0.8614515 6 3 C6.33 3 6.66 3 7 3 C7 51.84 7 100.68 7 151 C6.67 151 6.34 151 6 151 C5.67 178.06 5.34 205.12 5 233 C4.34 233.33 3.68 233.66 3 234 C3 234.33 3 234.66 3 235 C-21.33333333 235 -45.66666667 235 -70 235 C-68.02 234.01 -68.02 234.01 -66 233 C-67.65 232.67 -69.3 232.34 -71 232 C-71.33 232.99 -71.66 233.98 -72 235 C-73.34160524 230.97518427 -73.13404772 227.10388006 -73.12025452 222.907547 C-73.12110894 221.96576668 -73.12196337 221.02398636 -73.12284368 220.05366725 C-73.12449639 216.88447327 -73.11898049 213.71533172 -73.11352539 210.54614258 C-73.11324345 208.27971905 -73.11340139 206.01329543 -73.1139679 203.74687195 C-73.11425559 197.581949 -73.1083633 191.41704538 -73.10139394 185.25212693 C-73.09515583 178.81389351 -73.09455624 172.37565968 -73.09336853 165.93742371 C-73.09061046 155.12730534 -73.08435812 144.31719493 -73.07543945 133.50708008 C-73.06626222 122.37198929 -73.05918291 111.23690044 -73.05493164 100.10180664 C-73.05466892 99.41558583 -73.05440619 98.72936502 -73.05413551 98.02234963 C-73.05283048 94.57982516 -73.05156677 91.13730067 -73.05032361 87.69477618 C-73.03995475 59.12984502 -73.02151846 30.5649251 -73 2 C-48.91 2 -24.82 2 0 2 C0 1.34 0 0.68 0 0 Z M-70 5 C-70.06764381 34.04104965 -70.12293908 63.08203581 -70.15543652 92.12314415 C-70.15849619 94.80410138 -70.16162014 97.48505853 -70.16479492 100.16601562 C-70.16558185 100.8323981 -70.16636878 101.49878057 -70.16717956 102.18535645 C-70.18024635 112.98636312 -70.20390715 123.78732207 -70.23145839 134.58830039 C-70.25947725 145.66468661 -70.27594412 156.7410533 -70.28226548 167.81747401 C-70.28618646 174.04164671 -70.29544168 180.26571103 -70.31719017 186.48984909 C-70.33747427 192.34202755 -70.34385023 198.19405246 -70.33932304 204.04626274 C-70.34015188 206.19980769 -70.34616534 208.35335751 -70.35761642 210.50687218 C-70.37243422 213.43595622 -70.36899301 216.36445234 -70.36076355 219.29354858 C-70.36950207 220.15540437 -70.3782406 221.01726016 -70.38724393 221.90523279 C-70.40321576 224.50328577 -70.40321576 224.50328577 -70 228 C-50.02309025 241.31793983 -22.00925747 230 2 230 C2 155.75 2 81.5 2 5 C-21.76 5 -45.52 5 -70 5 Z " fill="#2690C6" transform="translate(114,137)"/>
<path d="M0 0 C26.4 0.33 52.8 0.66 80 1 C80 1.33 80 1.66 80 2 C79.05674866 1.99920441 78.11349731 1.99840881 77.1416626 1.99758911 C68.25410043 1.99398742 59.36711678 2.02175751 50.47974014 2.0802784 C45.91050849 2.10935627 41.34179083 2.12736264 36.77246094 2.12011719 C32.36301222 2.11353176 27.95457987 2.13596292 23.54534149 2.17855453 C21.86286792 2.18969999 20.18029144 2.19037287 18.49781036 2.18042374 C16.14096644 2.16827264 13.78723524 2.19328448 11.43066406 2.22705078 C10.38625153 2.20871941 10.38625153 2.20871941 9.32073975 2.1900177 C7.1091797 2.18364664 7.1091797 2.18364664 4 3 C1.83706719 5.79640566 1.83706719 5.79640566 0 9 C-1.96588438 10.38314004 -3.96820262 11.71564134 -6 13 C-7.92338623 14.75055187 -9.76604101 16.50170067 -11.59057617 18.34765625 C-12.11332626 18.868508 -12.63607635 19.38935974 -13.17466736 19.92599487 C-14.88567979 21.63332994 -16.58943044 23.34770999 -18.29296875 25.0625 C-19.48753432 26.25825909 -20.68247135 27.45364719 -21.87776184 28.64868164 C-24.37466507 31.14714443 -26.86818677 33.64891654 -29.35913086 36.15332031 C-32.54836516 39.3595712 -35.74416997 42.55917261 -38.94230175 45.75654602 C-41.40729283 48.22180925 -43.86966737 50.68967184 -46.33117104 53.15841675 C-47.50871483 54.33913655 -48.68685982 55.51925711 -49.86562157 56.69876099 C-51.51214648 58.34745923 -53.1553341 59.99941181 -54.79760742 61.65234375 C-55.5246991 62.37875565 -55.5246991 62.37875565 -56.26647949 63.11984253 C-61.79029403 68.4594549 -61.79029403 68.4594549 -63.38476086 75.63079453 C-63.3942174 76.56185855 -63.40367394 77.49292257 -63.41341704 78.45220065 C-63.40856947 79.47165058 -63.40372189 80.49110052 -63.39872742 81.54144287 C-63.40537424 82.62700195 -63.41202107 83.71256102 -63.41886932 84.83101583 C-63.43757211 88.48086275 -63.43488907 92.13038395 -63.43237305 95.78027344 C-63.44138573 98.39167242 -63.45171173 101.00306716 -63.46325684 103.61445618 C-63.48606194 109.24292361 -63.49793122 114.87132907 -63.50238609 120.49983978 C-63.50884287 128.63771702 -63.53177188 136.77548215 -63.55872939 144.91331425 C-63.60201771 158.11618463 -63.63197277 171.31905029 -63.65356445 184.52197266 C-63.67456802 197.34784259 -63.70183767 210.17367394 -63.73754883 222.99951172 C-63.73974765 223.79001465 -63.74194648 224.58051759 -63.74421193 225.39497516 C-63.75528143 229.36067179 -63.76647427 233.32636807 -63.77772844 237.29206419 C-63.8709425 270.19467736 -63.94252703 303.09730469 -64 336 C-62.38459882 335.88748543 -60.77015594 335.7611489 -59.15625 335.62890625 C-58.25712891 335.56002197 -57.35800781 335.4911377 -56.43164062 335.42016602 C-53.24532042 334.86959804 -51.9472493 333.51519702 -50 331 C-49.34 331 -48.68 331 -48 331 C-48 330.34 -48 329.68 -48 329 C-46.390625 327.44921875 -46.390625 327.44921875 -44.25 325.6875 C-41.89939355 323.69441586 -39.93081642 321.91352052 -38 319.5 C-35.10686083 315.88357603 -31.70407017 312.78206136 -28 310 C-27.34 310 -26.68 310 -26 310 C-25.77417236 309.44820068 -25.54834473 308.89640137 -25.31567383 308.32788086 C-23.60228171 305.29629916 -21.42571825 303.20225141 -18.94921875 300.75390625 C-18.45339798 300.26091537 -17.95757721 299.7679245 -17.44673157 299.25999451 C-15.86497269 297.68938604 -14.27641315 296.12586714 -12.6875 294.5625 C-11.63039807 293.51543948 -10.57375264 292.46791787 -9.51757812 291.41992188 C-7.56359322 289.48221204 -5.60653087 287.54781937 -3.6472168 285.61547852 C-1.08800199 283.08694691 1.45846746 280.54629147 4 278 C4.53448761 277.5638739 5.06897522 277.1277478 5.61965942 276.67840576 C7.5304882 274.35496031 7.39691588 272.77968329 7.43237305 269.79418945 C7.45216721 268.73331619 7.47196136 267.67244293 7.49235535 266.579422 C7.49874527 265.43559555 7.50513519 264.2917691 7.51171875 263.11328125 C7.53864555 261.35506294 7.53864555 261.35506294 7.56611633 259.56132507 C7.62036654 255.81175349 7.65416302 252.06231026 7.6875 248.3125 C7.72065999 245.77276854 7.7551484 243.23305405 7.79101562 240.69335938 C7.87610154 234.46235468 7.94438909 228.23133367 8 222 C8.33 222 8.66 222 9 222 C9.47614045 229.4493016 9.84447235 236.89859979 10.14135742 244.35717773 C10.25446618 246.88865172 10.39142442 249.41918481 10.5534668 251.94799805 C11.95402137 274.21198623 11.95402137 274.21198623 7.11474609 280.49853516 C4.89713306 282.86064368 2.53578839 284.82500762 -0.06958008 286.7434082 C-3.10276468 288.67900215 -3.10276468 288.67900215 -3.90893555 291.31323242 C-3.93898682 291.86986572 -3.96903809 292.42649902 -4 293 C-4.55300781 293.06574219 -5.10601562 293.13148438 -5.67578125 293.19921875 C-8.97520419 294.33599472 -10.74332081 296.34665895 -13.1875 298.8125 C-14.06792969 299.68519531 -14.94835937 300.55789063 -15.85546875 301.45703125 C-17.92243553 303.90802464 -18.43599235 304.97486806 -19 308 C-23.13778385 312.80877582 -23.13778385 312.80877582 -25.97265625 313.4375 C-28.56551427 314.15690569 -29.43584637 315.24748757 -31.125 317.3125 C-31.62257812 317.90675781 -32.12015625 318.50101562 -32.6328125 319.11328125 C-34.05906121 320.96800448 -34.05906121 320.96800448 -35.03125 323.109375 C-36.41947439 325.81865164 -38.62217841 327.13171161 -41 329 C-41.721875 329.9075 -42.44375 330.815 -43.1875 331.75 C-43.785625 332.4925 -44.38375 333.235 -45 334 C-45.66 334 -46.32 334 -47 334 C-47.33 334.99 -47.66 335.98 -48 337 C-49.875 337.625 -49.875 337.625 -52 338 C-52.99 338.33 -53.98 338.66 -55 339 C-56.83140741 339.09377689 -58.66619987 339.12992957 -60.5 339.125 C-61.4590625 339.12757813 -62.418125 339.13015625 -63.40625 339.1328125 C-66 339 -66 339 -69 338 C-69.06860772 303.76504605 -69.12149904 269.53010775 -69.15319599 235.29509995 C-69.15694829 231.25695454 -69.16083124 227.21880927 -69.16479492 223.18066406 C-69.16558185 222.37671331 -69.16636878 221.57276256 -69.16717956 220.74444966 C-69.18024749 207.71249571 -69.20390893 194.6805813 -69.23145839 181.64865084 C-69.25947406 168.285117 -69.27616811 154.92160393 -69.28226548 141.55804193 C-69.28638992 133.30636569 -69.29943479 125.0548012 -69.3237494 116.80315934 C-69.33955928 111.15120334 -69.34441119 105.49930544 -69.34050413 99.84732892 C-69.33857512 96.58226368 -69.34323253 93.31743666 -69.35761642 90.05239677 C-69.37242598 86.51903504 -69.36899581 82.98616109 -69.36076355 79.45278931 C-69.36950207 78.4119499 -69.3782406 77.37111049 -69.38724393 76.29873049 C-69.38127078 75.35771499 -69.37529764 74.41669948 -69.36914349 73.44716835 C-69.37028265 72.63076964 -69.37142181 71.81437093 -69.37259549 70.97323287 C-69.24963898 70.32206602 -69.12668247 69.67089917 -69 69 C-67.515 68.01 -67.515 68.01 -66 67 C-64.64499081 65.68870078 -63.31328657 64.35308313 -62 63 C-61.0409375 62.071875 -61.0409375 62.071875 -60.0625 61.125 C-58.39236368 59.40425349 -56.9277876 57.68205241 -55.4375 55.8125 C-53 53 -53 53 -50 52 C-48.83333333 50.08333333 -48.83333333 50.08333333 -48 48 C-47 46 -47 46 -44 45 C-43.34 44.34 -42.68 43.68 -42 43 C-41.34 42.34 -40.68 41.68 -40 41 C-39.53029785 40.52022705 -39.0605957 40.0404541 -38.57666016 39.54614258 C-37.03236795 38.03174144 -35.43420983 36.64650908 -33.7734375 35.26171875 C-29.88166434 31.94828642 -26.23982419 28.42347044 -22.625 24.8125 C-21.99722656 24.19697266 -21.36945313 23.58144531 -20.72265625 22.94726562 C-20.12582031 22.35236328 -19.52898437 21.75746094 -18.9140625 21.14453125 C-18.3773291 20.61190674 -17.8405957 20.07928223 -17.28759766 19.53051758 C-15.76611926 17.91293621 -15.76611926 17.91293621 -15 15 C-13.66966958 14.32736102 -12.33563214 13.66204909 -11 13 C-9.22166506 11.40742047 -7.49553496 9.75547904 -5.8125 8.0625 C-4.49185547 6.74958984 -4.49185547 6.74958984 -3.14453125 5.41015625 C-0.8196831 3.11635158 -0.8196831 3.11635158 0 0 Z M-68 70 C-68 143.92 -68 217.84 -68 294 C-67.67 294 -67.34 294 -67 294 C-67 220.08 -67 146.16 -67 70 C-67.33 70 -67.66 70 -68 70 Z M-68 295 C-68 305.89 -68 316.78 -68 328 C-67.67 328 -67.34 328 -67 328 C-67 317.11 -67 306.22 -67 295 C-67.33 295 -67.66 295 -68 295 Z " fill="#1D8ECA" transform="translate(218,31)"/>
<path d="M0 0 C17.81074565 -0.07003234 35.62145565 -0.12295979 53.43230915 -0.15543652 C61.70190847 -0.17091578 69.97142233 -0.19202544 78.2409668 -0.22631836 C85.44738499 -0.25618841 92.65374129 -0.2755673 99.86021966 -0.28226548 C103.67721382 -0.28618184 107.4940309 -0.29540755 111.3109684 -0.31719017 C114.90193811 -0.33751764 118.49265742 -0.34384148 122.0836792 -0.33932304 C124.0333322 -0.34054489 125.98295779 -0.35670658 127.93254089 -0.3732605 C129.08940399 -0.36913651 130.24626709 -0.36501251 131.43818665 -0.36076355 C132.94946624 -0.36491162 132.94946624 -0.36491162 134.49127674 -0.36914349 C137.38699681 0.05694425 138.18042281 0.78716933 140 3 C140.33 3 140.66 3 141 3 C141 7.29 141 11.58 141 16 C140.67 16 140.34 16 140 16 C140 19.96 140 23.92 140 28 C140.66 28 141.32 28 142 28 C142 43.84 142 59.68 142 76 C141.01 76.495 141.01 76.495 140 77 C139.855625 77.66 139.71125 78.32 139.5625 79 C139.376875 79.66 139.19125 80.32 139 81 C138.01 81.33 137.02 81.66 136 82 C136.33 82.66 136.66 83.32 137 84 C98.33333333 84 59.66666667 84 21 84 C18.14321297 84.08210785 15.2923102 84.18693573 12.4375 84.3125 C11.65697266 84.33505859 10.87644531 84.35761719 10.07226562 84.38085938 C8.03996984 84.47730137 6.01646329 84.72907006 4 85 C3.34 85.99 2.68 86.98 2 88 C2.185625 87.195625 2.37125 86.39125 2.5625 85.5625 C2.706875 84.716875 2.85125 83.87125 3 83 C2.67 82.67 2.34 82.34 2 82 C2.00523682 83.17280518 2.01047363 84.34561035 2.01586914 85.55395508 C2.03428966 90.0028402 2.04556393 94.45172215 2.05493164 98.90063477 C2.05988881 100.80786714 2.06665654 102.71509586 2.07543945 104.62231445 C2.1329428 117.45232616 1.82129914 130.19532604 1 143 C0.67 143 0.34 143 0 143 C-0.0231271 134.80309439 -0.04091696 126.60620232 -0.05181217 118.40927219 C-0.0570402 114.60348423 -0.06413638 110.79771852 -0.07543945 106.99194336 C-0.0862712 103.32207456 -0.09227744 99.65222722 -0.09487724 95.98234367 C-0.09673097 94.57925008 -0.1003506 93.17615771 -0.10573006 91.7730732 C-0.11294419 89.8143032 -0.11340809 87.8555118 -0.11352539 85.89672852 C-0.115746 84.77976089 -0.11796661 83.66279327 -0.12025452 82.51197815 C0 80 0 80 1 79 C2.7589343 78.90367955 4.52177159 78.8781249 6.28334045 78.87974548 C8.00188988 78.87768349 8.00188988 78.87768349 9.75515747 78.87557983 C11.65731522 78.88097275 11.65731522 78.88097275 13.59790039 78.88647461 C14.93793231 78.88675648 16.27796439 78.88659875 17.61799622 78.8860321 C21.26659438 78.88574413 24.91515995 78.8916408 28.56375051 78.89860606 C32.37277516 78.90483966 36.1818005 78.9054434 39.99082947 78.90663147 C47.20857754 78.90974477 54.42631054 78.91795814 61.64405197 78.92798096 C71.39398973 78.9412274 81.14393159 78.94664202 90.89387608 78.95248318 C106.26259535 78.96189803 121.63128281 78.98181695 137 79 C137 54.58 137 30.16 137 5 C127.6775 5.020625 118.355 5.04125 108.75 5.0625 C82.12121988 5.09045279 55.50103001 4.87373411 28.875 4.5 C28.02270309 4.48804218 27.17040619 4.47608437 26.2922821 4.46376419 C15.86140468 4.31673207 5.43065278 4.1622149 -5 4 C-5 3.67 -5 3.34 -5 3 C-3.35 2.67 -1.7 2.34 0 2 C0 1.34 0 0.68 0 0 Z " fill="#2A95CA" transform="translate(227,28)"/>
<path d="M0 0 C0.99 0.495 0.99 0.495 2 1 C2 1.66 2 2.32 2 3 C2.99 3.33 3.98 3.66 5 4 C5.12375 5.051875 5.2475 6.10375 5.375 7.1875 C5.91140782 10.45958771 6.63880035 13.00536076 8 16 C8.66 16 9.32 16 10 16 C10 17.98 10 19.96 10 22 C10.33 22 10.66 22 11 22 C11.05429959 23.74965358 11.09292823 25.49979787 11.125 27.25 C11.14820312 28.22453125 11.17140625 29.1990625 11.1953125 30.203125 C10.99522312 33.06840491 10.41460873 34.54801153 9 37 C7.93888735 39.8341228 7.93888735 39.8341228 7.75 42.25 C6.69280878 46.1263678 4.66540137 49.01506221 2 52 C0.67432801 52.68177416 -0.65753688 53.35191436 -2 54 C-2.28875 54.845625 -2.5775 55.69125 -2.875 56.5625 C-3.24625 57.366875 -3.6175 58.17125 -4 59 C-6.5625 59.5625 -6.5625 59.5625 -10 60 C-12.29947454 60.93517362 -14.52059999 61.97968484 -16.75390625 63.0625 C-25.47353371 66.70199668 -34.79336418 65.66356121 -43.34765625 62.21484375 C-53.38043478 57.61956522 -53.38043478 57.61956522 -57 54 C-57.825 53.38125 -58.65 52.7625 -59.5 52.125 C-61.90962444 50.07681923 -62.7757703 48.82514547 -64 46 C-64.66 45.34 -65.32 44.68 -66 44 C-70.64869324 33.29521097 -70.15557251 21.76820972 -66 11 C-63.64856721 6.195239 -61.86241769 3.32048052 -57 1 C-55.61767557 -0.62626404 -54.28062485 -2.2925002 -53 -4 C-50.77810176 -6.22189824 -48.91517292 -6.92598892 -46 -8 C-46 -8.66 -46 -9.32 -46 -10 C-28.26107325 -13.70616862 -14.4649996 -10.8487497 0 0 Z M-47.25 -2.0625 C-53.95735544 1.4641849 -58.60183218 5.57844364 -60.9140625 12.890625 C-64.04564565 25.24135479 -64.05199459 33.68460406 -58 45 C-57.33063928 46.3319829 -56.66294662 47.66481312 -56 49 C-55.34 49 -54.68 49 -54 49 C-54 49.66 -54 50.32 -54 51 C-47.34411338 58.1202508 -38.50051425 61.08604207 -28.8125 61.4375 C-21.14783367 61.07607671 -13.97069282 58.87082835 -8 54 C-8 53.34 -8 52.68 -8 52 C-7.4225 51.773125 -6.845 51.54625 -6.25 51.3125 C-0.67149067 48.05836956 2.05072492 41.93719511 4 36 C4.4877566 32.37373795 4.4735101 28.84015091 4.375 25.1875 C4.37371094 24.26001953 4.37242188 23.33253906 4.37109375 22.37695312 C4.31402285 17.97932324 4.22466957 14.88179876 2 11 C1.34 11 0.68 11 0 11 C-0.0825 10.278125 -0.165 9.55625 -0.25 8.8125 C-1.661921 3.51779625 -5.49332282 -0.08943765 -10 -3 C-13.94904906 -4.50898623 -17.95582035 -5.77291985 -22 -7 C-30.26743565 -9.75581188 -39.75523721 -5.63411304 -47.25 -2.0625 Z M-65 11 C-64 13 -64 13 -64 13 Z M-66 14 C-65 17 -65 17 -65 17 Z M-67 17 C-66 20 -66 20 -66 20 Z M8 19 C9 21 9 21 9 21 Z M-68 22 C-68 24.64 -68 27.28 -68 30 C-67.67 30 -67.34 30 -67 30 C-67 27.36 -67 24.72 -67 22 C-67.33 22 -67.66 22 -68 22 Z M9 28 C9 29.65 9 31.3 9 33 C9.33 33 9.66 33 10 33 C10 31.35 10 29.7 10 28 C9.67 28 9.34 28 9 28 Z M-67 32 C-67 33.65 -67 35.3 -67 37 C-66.67 37 -66.34 37 -66 37 C-66 35.35 -66 33.7 -66 32 C-66.33 32 -66.66 32 -67 32 Z M8 33 C9 35 9 35 9 35 Z M-66 37 C-65 40 -65 40 -65 40 Z M6 40 C7 42 7 42 7 42 Z M-65 41 C-64 43 -64 43 -64 43 Z " fill="#238FC5" transform="translate(109,42)"/>
<path d="M0 0 C10.50927164 -0.02314922 21.01853724 -0.04092829 31.52782917 -0.05181217 C36.40747794 -0.05703533 41.2871093 -0.06412275 46.16674805 -0.07543945 C50.87404235 -0.08628839 55.58131988 -0.09228111 60.28862572 -0.09487724 C62.08639986 -0.09672786 63.88417306 -0.10034154 65.68194008 -0.10573006 C68.19593937 -0.11296707 70.70986895 -0.11398981 73.22387695 -0.11352539 C73.97050095 -0.11712067 74.71712494 -0.12071594 75.4863739 -0.12442017 C78.6015585 -0.1181747 81.02058151 0.0068605 84 1 C84.15453064 9.69328473 84.30270124 18.38664868 84.4429636 27.0801754 C84.50830249 31.11780061 84.57575427 35.15536653 84.64819336 39.19287109 C84.7181434 43.09612531 84.78233612 46.99943722 84.84269524 50.9028511 C84.86659648 52.38506068 84.89250145 53.86723948 84.92053413 55.34937668 C85.06972955 63.30954915 85.0016109 71.08828563 84 79 C79.545 79.495 79.545 79.495 75 80 C75 80.66 75 81.32 75 82 C49.92 82 24.84 82 -1 82 C-1 88.27 -1 94.54 -1 101 C-1.33 101 -1.66 101 -2 101 C-2.33 94.4 -2.66 87.8 -3 81 C-1.515 80.505 -1.515 80.505 0 80 C-0.99 79.01 -1.98 78.02 -3 77 C24.39 77 51.78 77 80 77 C80 52.58 80 28.16 80 3 C53.27 3 26.54 3 -1 3 C-0.67 2.01 -0.34 1.02 0 0 Z M82 9 C82 31.11 82 53.22 82 76 C82.33 76 82.66 76 83 76 C83 53.89 83 31.78 83 9 C82.67 9 82.34 9 82 9 Z " fill="#2A97D1" transform="translate(231,173)"/>
<path d="M0 0 C1.98 0.495 1.98 0.495 4 1 C4 16.84 4 32.68 4 49 C3.01 49.495 3.01 49.495 2 50 C1.7834375 50.99 1.7834375 50.99 1.5625 52 C1.376875 52.66 1.19125 53.32 1 54 C0.01 54.33 -0.98 54.66 -2 55 C-1.67 55.66 -1.34 56.32 -1 57 C-39.66666667 57 -78.33333333 57 -117 57 C-119.85678703 57.08210785 -122.7076898 57.18693573 -125.5625 57.3125 C-126.34302734 57.33505859 -127.12355469 57.35761719 -127.92773438 57.38085938 C-129.96003016 57.47730137 -131.98353671 57.72907006 -134 58 C-134.66 58.99 -135.32 59.98 -136 61 C-135.814375 60.195625 -135.62875 59.39125 -135.4375 58.5625 C-135.293125 57.716875 -135.14875 56.87125 -135 56 C-135.33 55.67 -135.66 55.34 -136 55 C-135.99476318 56.17280518 -135.98952637 57.34561035 -135.98413086 58.55395508 C-135.96571034 63.0028402 -135.95443607 67.45172215 -135.94506836 71.90063477 C-135.94011119 73.80786714 -135.93334346 75.71509586 -135.92456055 77.62231445 C-135.8670572 90.45232616 -136.17870086 103.19532604 -137 116 C-137.33 116 -137.66 116 -138 116 C-138 95.21 -138 74.42 -138 53 C-92.46 53 -46.92 53 0 53 C0 35.51 0 18.02 0 0 Z " fill="#3DA6DA" transform="translate(365,55)"/>
<path d="M0 0 C23.76 0 47.52 0 72 0 C72 74.25 72 148.5 72 225 C3 225 3 225 0 223 C-0.29411253 220.02912871 -0.39090949 217.26675685 -0.36076355 214.29354858 C-0.36332682 213.38120756 -0.3658901 212.46886653 -0.36853105 211.52887881 C-0.37349641 208.45315821 -0.35693075 205.37792192 -0.34057617 202.30224609 C-0.33973049 200.10493481 -0.34020388 197.90762268 -0.34190369 195.71031189 C-0.34276738 189.72914249 -0.32508117 183.74815216 -0.30418181 177.76702452 C-0.2854772 171.52231463 -0.28366949 165.27760101 -0.28010559 159.03286743 C-0.27182904 148.54629615 -0.25306752 138.0597805 -0.22631836 127.57324219 C-0.19879209 116.7708367 -0.17755152 105.9684491 -0.16479492 95.16601562 C-0.16400675 94.50044106 -0.16321858 93.83486649 -0.16240653 93.149123 C-0.15849149 89.81021649 -0.1547071 86.47130985 -0.15097082 83.13240314 C-0.11958027 55.42154557 -0.06454533 27.71080154 0 0 Z M1 5 C0.90209382 7.80685351 0.87007197 10.58909936 0.87974548 13.39637756 C0.87889106 14.2874464 0.87803663 15.17851524 0.87715632 16.09658617 C0.87549878 19.10615877 0.88102735 22.11567661 0.88647461 25.12524414 C0.88675645 27.27314757 0.88659881 29.4210511 0.8860321 31.56895447 C0.885744 37.41995669 0.8916428 43.2709386 0.89860606 49.12193608 C0.90483747 55.22919313 0.90544323 61.33645059 0.90663147 67.44371033 C0.90974542 79.01761965 0.91795965 90.59151958 0.92798096 102.16542476 C0.93914014 115.33811023 0.94465205 128.51079614 0.94967639 141.68348515 C0.96014222 168.78899532 0.97774288 195.89449713 1 223 C4.31206725 224.10402242 6.78695285 224.1336193 10.27563477 224.14526367 C11.57030167 224.15164352 12.86496857 224.15802338 14.1988678 224.16459656 C15.6130469 224.16612488 17.02722651 224.16723903 18.44140625 224.16796875 C19.88964369 224.17118155 21.3378808 224.17454565 22.78611755 224.17805481 C25.81990309 224.18404088 28.85366015 224.18589514 31.88745117 224.18530273 C35.78048597 224.18520091 39.67333922 224.19887643 43.56633091 224.21607494 C46.55597274 224.22717367 49.5455703 224.22922264 52.53523064 224.22869301 C53.97099371 224.22987545 55.40675785 224.23431193 56.84250069 224.24202538 C58.84622996 224.25178589 60.8500124 224.24769322 62.85375977 224.24291992 C64.56560204 224.24505745 64.56560204 224.24505745 66.31202698 224.24723816 C69.15130514 224.2749406 69.15130514 224.2749406 71 222 C71.19357255 219.09161382 71.26035345 216.27876554 71.24050903 213.36947632 C71.24221788 212.4653024 71.24392673 211.56112848 71.24568737 210.62955534 C71.24899741 207.58157107 71.23795373 204.53380404 71.22705078 201.48583984 C71.22648699 199.30823268 71.22680259 197.13062513 71.22793579 194.95301819 C71.22851157 189.02560668 71.21672086 183.09827548 71.20278788 177.1708827 C71.190318 170.9822222 71.18911298 164.79356004 71.18673706 158.60488892 C71.18086556 147.54602841 71.16640841 136.48720127 71.14745162 125.42835601 C71.12355595 111.41421396 71.1111966 97.4000765 71.10064721 83.38591838 C71.07972029 55.92392497 71.044523 28.46196456 71 1 C62.88947758 0.93036755 54.77908089 0.87712185 46.66833305 0.84456348 C42.90182786 0.82893394 39.13552779 0.80774576 35.36914062 0.77368164 C31.73164998 0.74099065 28.09435615 0.7231266 24.45672989 0.71536827 C23.07169626 0.70984215 21.68667291 0.69905095 20.30172348 0.68280983 C18.35604179 0.66090872 16.41016039 0.65977352 14.46435547 0.65942383 C13.35849091 0.65276199 12.25262634 0.64610016 11.11325073 0.63923645 C7.33265643 1.07733178 3.75991189 2.24008811 1 5 Z " fill="#1293DB" transform="translate(44,142)"/>
<path d="M0 0 C26.73 0 53.46 0 81 0 C81 25.74 81 51.48 81 78 C53.61 78.33 26.22 78.66 -2 79 C-2.33 78.34 -2.66 77.68 -3 77 C24.39 77 51.78 77 80 77 C80 52.58 80 28.16 80 3 C53.27 3 26.54 3 -1 3 C-0.67 2.01 -0.34 1.02 0 0 Z " fill="#2A8FC5" transform="translate(231,173)"/>
<path d="M0 0 C0 4.9262527 -3.67805999 7.60227429 -7 11 C-8.9277112 12.72479423 -10.89580012 14.39258444 -12.87109375 16.0625 C-16.90427456 19.73306455 -20.41196662 23.90163364 -24 28 C-24.33 28.33 -24.66 28.66 -25 29 C-25.09652896 30.40221294 -25.12371873 31.80926752 -25.12304783 33.21479893 C-25.12503888 34.12943962 -25.12702993 35.04408031 -25.12908131 35.98643738 C-25.12616847 37.00295299 -25.12325563 38.0194686 -25.12025452 39.06678772 C-25.12110894 40.13753286 -25.12196337 41.20827801 -25.12284368 42.31146997 C-25.12450166 45.92909878 -25.11897193 49.54668205 -25.11352539 53.16430664 C-25.11324356 55.7457021 -25.11340117 58.32709763 -25.1139679 60.90849304 C-25.11449331 66.48135418 -25.11134467 72.05420364 -25.10573006 77.62706184 C-25.09761745 85.68456806 -25.09500008 93.74206862 -25.09374207 101.79957848 C-25.09155117 114.87102753 -25.08489006 127.94247035 -25.07543945 141.01391602 C-25.06626631 153.71476205 -25.059185 166.4156064 -25.05493164 179.11645508 C-25.05466892 179.8987852 -25.05440619 180.68111531 -25.05413551 181.48715241 C-25.05283051 185.41170843 -25.05156679 189.33626446 -25.05032361 193.26082051 C-25.03994982 225.84055154 -25.02233048 258.42027494 -25 291 C-23.7315625 290.85691406 -22.463125 290.71382813 -21.15625 290.56640625 C-20.44275391 290.48592041 -19.72925781 290.40543457 -18.99414062 290.32250977 C-16.71317668 289.95361244 -14.95732993 289.22333121 -13 288 C-14.75 291.875 -14.75 291.875 -17 293 C-18.70702735 293.06996014 -20.41668003 293.08440154 -22.125 293.0625 C-23.03507813 293.05347656 -23.94515625 293.04445313 -24.8828125 293.03515625 C-25.58148438 293.02355469 -26.28015625 293.01195312 -27 293 C-27.25200093 259.44499429 -27.44571851 225.8902248 -27.56171862 192.33448233 C-27.57547573 188.36930829 -27.58971334 184.40413611 -27.60424805 180.43896484 C-27.60713346 179.64959965 -27.61001888 178.86023447 -27.61299173 178.04694912 C-27.66080384 165.28014248 -27.74750409 152.51388295 -27.84868076 139.74740043 C-27.95169577 126.63923279 -28.01267748 113.53135086 -28.03497344 100.42279506 C-28.05003708 92.33942436 -28.09753713 84.25760016 -28.18708114 76.17470577 C-28.25232698 69.96740448 -28.25897068 63.76127202 -28.24418449 57.5536747 C-28.24720356 55.01400313 -28.26899086 52.47427146 -28.31126022 49.93494987 C-28.64663265 28.7428673 -28.64663265 28.7428673 -23.200836 22.20340896 C-20.95694272 19.92351933 -18.52571504 17.95843132 -16 16 C-14.45447892 14.46333064 -12.92556021 12.90946974 -11.42578125 11.328125 C-10.05732574 9.96609417 -8.68629799 8.60664201 -7.3125 7.25 C-6.59900391 6.54101562 -5.88550781 5.83203125 -5.15039062 5.1015625 C-3.43595357 3.39863173 -1.71920013 1.69811958 0 0 Z " fill="#1293DC" transform="translate(181,74)"/>
<path d="M0 0 C0.33 0 0.66 0 1 0 C1 75.24 1 150.48 1 228 C0.67 228 0.34 228 0 228 C0 152.76 0 77.52 0 0 Z " fill="#0497EA" transform="translate(39,140)"/>
<path d="M0 0 C1.32 0.33 2.64 0.66 4 1 C4 1.66 4 2.32 4 3 C3.34 3 2.68 3 2 3 C2 3.66 2 4.32 2 5 C-21.43 5 -44.86 5 -69 5 C-68.67 4.01 -68.34 3.02 -68 2 C-45.56 2 -23.12 2 0 2 C0 1.34 0 0.68 0 0 Z " fill="#228EC6" transform="translate(114,137)"/>
<path d="M0 0 C7.63748198 4.4403965 11.64796213 10.43034494 14 19 C14.44670131 22.30292381 14.52533246 25.54473188 14.5 28.875 C14.49355469 29.75905518 14.48710938 30.64311035 14.48046875 31.55395508 C14.18030543 42.25221011 10.009599 48.37549418 2.96484375 56.1875 C1.01464345 57.98649193 -0.50222503 59.11547607 -3 60 C-3.99 59.67 -4.98 59.34 -6 59 C-4.9171875 58.4121875 -4.9171875 58.4121875 -3.8125 57.8125 C2.04093729 54.04028486 5.73643472 49.0461841 9 43 C9.37382813 42.31035156 9.74765625 41.62070313 10.1328125 40.91015625 C11.46317636 36.4456469 11.24771849 32.06798496 11.1875 27.4375 C11.18685547 26.49197266 11.18621094 25.54644531 11.18554688 24.57226562 C11.15987743 20.53645888 11.12323239 16.89966118 10 13 C9.34 13 8.68 13 8 13 C7.773125 12.278125 7.54625 11.55625 7.3125 10.8125 C5.75173074 7.46799444 3.6266129 5.55926385 1 3 C0.67 2.01 0.34 1.02 0 0 Z " fill="#1592D7" transform="translate(101,40)"/>
<path d="M0 0 C0.33 0 0.66 0 1 0 C1.16489403 3.38032759 1.01927086 5.93857414 0 9.1875 C-2.33591975 18.09319403 -1.33116247 24.60477024 3.00390625 32.6875 C4 35 4 35 3 38 C0.525 34.04 0.525 34.04 -2 30 C-1.34 31.98 -0.68 33.96 0 36 C-1.65 35.67 -3.3 35.34 -5 35 C-7.58716898 27.1768938 -8.38750039 20.2236194 -8 12 C-7.01 12 -6.02 12 -5 12 C-4.67 14.64 -4.34 17.28 -4 20 C-3.96261719 19.2265625 -3.92523438 18.453125 -3.88671875 17.65625 C-3.47779303 11.17758371 -2.62782653 5.94117302 0 0 Z M-6 22 C-6 23.65 -6 25.3 -6 27 C-5.67 27 -5.34 27 -5 27 C-5 25.35 -5 23.7 -5 22 C-5.33 22 -5.66 22 -6 22 Z M-5 27 C-4 30 -4 30 -4 30 Z M-4 31 C-3 33 -3 33 -3 33 Z " fill="#1793D3" transform="translate(48,52)"/>
<path d="M0 0 C0 0.66 0 1.32 0 2 C-3.55754918 1.55530635 -6.5516434 0.80611742 -9.8125 -0.625 C-17.97766942 -3.7917197 -26.60300885 -0.36412702 -34.23828125 2.98046875 C-37.72149366 4.64247686 -40.35465446 6.14367598 -43 9 C-43.66 8.67 -44.32 8.34 -45 8 C-32.61606458 -4.59797875 -16.19707912 -8.53681346 0 0 Z " fill="#1290D7" transform="translate(98,37)"/>
<path d="M0 0 C0.495 1.485 0.495 1.485 1 3 C-1.84087268 5.86590749 -4.68526136 8.72827697 -7.53271484 11.58764648 C-8.49751459 12.55742273 -9.46140895 13.5281007 -10.42431641 14.49975586 C-25.76928677 29.98045176 -25.76928677 29.98045176 -32 33 C-28.10023279 28.33125463 -24.04785356 23.90872191 -19.7265625 19.62890625 C-19.15795502 19.06171371 -18.58934753 18.49452118 -18.00350952 17.91014099 C-16.21303764 16.12520087 -14.41909516 14.34379744 -12.625 12.5625 C-11.39950677 11.34203061 -10.17424428 10.12132947 -8.94921875 8.90039062 C-5.96880226 5.93091244 -2.98527106 2.96459743 0 0 Z " fill="#1194DE" transform="translate(214,41)"/>
<path d="M0 0 C0.33 0 0.66 0 1 0 C1 26.07 1 52.14 1 79 C0.67 79 0.34 79 0 79 C0 52.93 0 26.86 0 0 Z " fill="#2F93C6" transform="translate(120,289)"/>
<path d="M0 0 C0.33 0 0.66 0 1 0 C1.33 5.94 1.66 11.88 2 18 C2.33 15.69 2.66 13.38 3 11 C3.33 11 3.66 11 4 11 C4.02687279 12.81242052 4.04633715 14.62495233 4.0625 16.4375 C4.07410156 17.44683594 4.08570313 18.45617187 4.09765625 19.49609375 C4 22 4 22 3 23 C2.76572222 25.01594582 2.58663876 27.038474 2.4375 29.0625 C2.35371094 30.16722656 2.26992187 31.27195312 2.18359375 32.41015625 C2.12300781 33.26480469 2.06242188 34.11945313 2 35 C2.33 35 2.66 35 3 35 C3 37.97 3 40.94 3 44 C0.35171941 41.44640995 -0.22449877 39.42551261 -0.34057617 35.87402344 C-0.34010301 34.2023987 -0.32326111 32.53072531 -0.29296875 30.859375 C-0.28872391 29.97719299 -0.28447906 29.09501099 -0.28010559 28.18609619 C-0.26333838 25.37375117 -0.22568998 22.56212774 -0.1875 19.75 C-0.17245062 17.8411562 -0.15876266 15.93230114 -0.14648438 14.0234375 C-0.11344127 9.34868111 -0.06167255 4.67446282 0 0 Z " fill="#329ED8" transform="translate(227,263)"/>
<path d="M0 0 C0.66368088 0.00946152 1.32736176 0.01892303 2.01115417 0.02867126 C4.20278628 0.06232418 6.39384968 0.11044503 8.58520508 0.15869141 C10.1054791 0.18486116 11.62576892 0.21012796 13.14607239 0.23452759 C17.14606722 0.30115309 21.14572971 0.38005115 25.14544678 0.46148682 C29.22745007 0.54243191 33.30964821 0.61179642 37.3918457 0.68212891 C45.40054579 0.82182215 53.40893187 0.97447811 61.41723633 1.13525391 C61.41723633 1.46525391 61.41723633 1.79525391 61.41723633 2.13525391 C37.98723633 2.13525391 14.55723633 2.13525391 -9.58276367 2.13525391 C-5.93794255 -0.29462684 -4.33293108 -0.08009115 0 0 Z " fill="#0996E7" transform="translate(51.582763671875,135.86474609375)"/>
<path d="M0 0 C2.27291362 2.92620616 4.23315875 5.94024212 6.125 9.125 C6.64320312 9.99382812 7.16140625 10.86265625 7.6953125 11.7578125 C8.5046697 13.14874374 9.28031273 14.56062547 10 16 C7.75 16.3125 7.75 16.3125 5 16 C2.625 13.75 2.625 13.75 1 11 C1.375 8.9375 1.375 8.9375 2 7 C1.09166275 4.93330603 1.09166275 4.93330603 0 3 C0 2.01 0 1.02 0 0 Z " fill="#228CBE" transform="translate(45,79)"/>
<path d="M0 0 C0.99 0.33 1.98 0.66 3 1 C3 1.66 3 2.32 3 3 C3.8971875 3.37125 3.8971875 3.37125 4.8125 3.75 C7.28647521 5.16370012 8.43370255 6.65055383 10 9 C9.67 9.66 9.34 10.32 9 11 C8.443125 10.71125 7.88625 10.4225 7.3125 10.125 C4.91505355 8.9586747 2.48403061 7.9660119 0 7 C0.66 6.01 1.32 5.02 2 4 C1.34 2.68 0.68 1.36 0 0 Z " fill="#1E93CE" transform="translate(52,90)"/>
<path d="M0 0 C0.99 0.495 0.99 0.495 2 1 C2 12.88 2 24.76 2 37 C1.67 37 1.34 37 1 37 C0.67 24.79 0.34 12.58 0 0 Z " fill="#38ABE8" transform="translate(229,117)"/>
<path d="M0 0 C4.62 0 9.24 0 14 0 C13.67 0.99 13.34 1.98 13 3 C8.71 3 4.42 3 0 3 C0 2.01 0 1.02 0 0 Z " fill="#3492BF" transform="translate(152,367)"/>
<path d="M0 0 C1.485 0.99 1.485 0.99 3 2 C2.34 2 1.68 2 1 2 C1 8.27 1 14.54 1 21 C0.67 21 0.34 21 0 21 C-0.19592461 17.68794116 -0.38032746 14.37534146 -0.5625 11.0625 C-0.61857422 10.11697266 -0.67464844 9.17144531 -0.73242188 8.19726562 C-0.78076172 7.29814453 -0.82910156 6.39902344 -0.87890625 5.47265625 C-0.9260376 4.64000244 -0.97316895 3.80734863 -1.02172852 2.94946289 C-1 1 -1 1 0 0 Z " fill="#2393CE" transform="translate(229,253)"/>
<path d="M0 0 C0.99 0.33 1.98 0.66 3 1 C1.37660195 2.70884005 -0.29319053 4.37446717 -2 6 C-2.66 6 -3.32 6 -4 6 C-4 6.66 -4 7.32 -4 8 C-4.66 8 -5.32 8 -6 8 C-4.55746343 4.63408134 -2.66735273 2.48952921 0 0 Z " fill="#128FD6" transform="translate(174,354)"/>
<path d="M0 0 C0 3 0 3 -2.5 5.6875 C-3.325 6.450625 -4.15 7.21375 -5 8 C-5.66 7.67 -6.32 7.34 -7 7 C-5.12050295 3.42895561 -3.82946843 1.45255699 0 0 Z " fill="#238EC7" transform="translate(199,336)"/>
<path d="M0 0 C0 3 0 3 -1.3125 4.38671875 C-2.875 5.59114583 -4.4375 6.79557292 -6 8 C-6.66 7.34 -7.32 6.68 -8 6 C-7.236875 5.566875 -6.47375 5.13375 -5.6875 4.6875 C-3.41906232 3.26313215 -1.7800277 1.96739903 0 0 Z " fill="#2491CA" transform="translate(183,352)"/>
<path d="M0 0 C0 3 0 3 -2 5.1875 C-2.66 5.785625 -3.32 6.38375 -4 7 C-4.66 6.67 -5.32 6.34 -6 6 C-4.02 4.02 -2.04 2.04 0 0 Z " fill="#258DC6" transform="translate(206,329)"/>
<path d="M0 0 C0.33 0 0.66 0 1 0 C1 3.96 1 7.92 1 12 C0.67 12 0.34 12 0 12 C0 8.04 0 4.08 0 0 Z " fill="#34A6E4" transform="translate(230,286)"/>
<path d="M0 0 C3.96 0 7.92 0 12 0 C12 0.33 12 0.66 12 1 C8.04 1 4.08 1 0 1 C0 0.67 0 0.34 0 0 Z " fill="#2A93C8" transform="translate(74,108)"/>
<path d="M0 0 C0 0.99 0 1.98 0 3 C-0.99 3 -1.98 3 -3 3 C-2.01 2.01 -1.02 1.02 0 0 Z " fill="#2993CD" transform="translate(187,348)"/>
<path d="M0 0 C0 0.99 0 1.98 0 3 C-0.99 3 -1.98 3 -3 3 C-2.01 2.01 -1.02 1.02 0 0 Z " fill="#2792CB" transform="translate(211,324)"/>
<path d="M0 0 C0.33 0 0.66 0 1 0 C1 2.31 1 4.62 1 7 C0.67 7 0.34 7 0 7 C0 4.69 0 2.38 0 0 Z " fill="#2B95CF" transform="translate(229,158)"/>
<path d="M0 0 C2.31 0 4.62 0 7 0 C7 0.33 7 0.66 7 1 C4.69 1 2.38 1 0 1 C0 0.67 0 0.34 0 0 Z " fill="#199CE0" transform="translate(82,29)"/>
<path d="M0 0 C0.33 0 0.66 0 1 0 C1 1.98 1 3.96 1 6 C0.67 6 0.34 6 0 6 C0 4.02 0 2.04 0 0 Z " fill="#2D97CF" transform="translate(367,49)"/>
<path d="M0 0 C1.98 0 3.96 0 6 0 C6 0.33 6 0.66 6 1 C4.02 1 2.04 1 0 1 C0 0.67 0 0.34 0 0 Z " fill="#149CE3" transform="translate(71,29)"/>
<path d="M0 0 C1.32 0 2.64 0 4 0 C3.67 0.66 3.34 1.32 3 2 C2.01 1.34 1.02 0.68 0 0 Z " fill="#2E95C6" transform="translate(154,370)"/>
<path d="M0 0 C1.65 0 3.3 0 5 0 C5 0.33 5 0.66 5 1 C3.35 1 1.7 1 0 1 C0 0.67 0 0.34 0 0 Z " fill="#359FD8" transform="translate(307,254)"/>
<path d="M0 0 C1.32 0.33 2.64 0.66 4 1 C3.01 1.495 3.01 1.495 2 2 C1.34 1.34 0.68 0.68 0 0 Z " fill="#2694CC" transform="translate(86,107)"/>
<path d="M0 0 C0.99 0.33 1.98 0.66 3 1 C2.34 1.66 1.68 2.32 1 3 C0.67 2.01 0.34 1.02 0 0 Z " fill="#1E93D0" transform="translate(67,106)"/>
<path d="M0 0 C0.66 0.33 1.32 0.66 2 1 C1.01 1.66 0.02 2.32 -1 3 C-0.67 2.01 -0.34 1.02 0 0 Z " fill="#2190C9" transform="translate(52,40)"/>
<path d="M0 0 C1.65 0 3.3 0 5 0 C5 0.33 5 0.66 5 1 C3.35 1 1.7 1 0 1 C0 0.67 0 0.34 0 0 Z " fill="#20A0E3" transform="translate(220,29)"/>
<path d="M0 0 C1.32 0.33 2.64 0.66 4 1 C2.68 1.33 1.36 1.66 0 2 C0 1.34 0 0.68 0 0 Z " fill="#1197E1" transform="translate(78,28)"/>
<path d="M0 0 C4 1 4 1 4 1 Z " fill="#2F9BD0" transform="translate(161,371)"/>
<path d="M0 0 C4 1 4 1 4 1 Z " fill="#2491C8" transform="translate(70,107)"/>
<path d="M0 0 C0.33 0.66 0.66 1.32 1 2 C0.34 1.67 -0.32 1.34 -1 1 C-0.67 0.67 -0.34 0.34 0 0 Z " fill="#288DC2" transform="translate(167,368)"/>
<path d="M0 0 C0.33 0.66 0.66 1.32 1 2 C0.34 1.67 -0.32 1.34 -1 1 C-0.67 0.67 -0.34 0.34 0 0 Z " fill="#2A94CC" transform="translate(189,346)"/>
<path d="M0 0 C0.33 0.66 0.66 1.32 1 2 C0.34 1.67 -0.32 1.34 -1 1 C-0.67 0.67 -0.34 0.34 0 0 Z " fill="#218CC6" transform="translate(222,313)"/>
<path d="" fill="#2E97D3" transform="translate(0,0)"/>
<path d="" fill="#3495C8" transform="translate(0,0)"/>
<path d="M0 0 C3 1 3 1 3 1 Z " fill="#2790C5" transform="translate(90,106)"/>
<path d="M0 0 C3 1 3 1 3 1 Z " fill="#238FC6" transform="translate(93,105)"/>
<path d="" fill="#208CC4" transform="translate(0,0)"/>
<path d="" fill="#1F8FC7" transform="translate(0,0)"/>
<path d="M0 0 C3 1 3 1 3 1 Z " fill="#1E90C9" transform="translate(92,31)"/>
<path d="M0 0 C3 1 3 1 3 1 Z " fill="#1D94D2" transform="translate(89,30)"/>
<path d="M0 0 C3 1 3 1 3 1 Z " fill="#199ADD" transform="translate(68,30)"/>
<path d="" fill="#0E97E5" transform="translate(0,0)"/>
<path d="M0 0 C2 1 2 1 2 1 Z " fill="#1C9EEA" transform="translate(230,157)"/>
<path d="M0 0 C2 1 2 1 2 1 Z " fill="#2491C6" transform="translate(65,105)"/>
<path d="M0 0 C2 1 2 1 2 1 Z " fill="#238EC5" transform="translate(96,104)"/>
<path d="M0 0 C2 1 2 1 2 1 Z " fill="#2492C8" transform="translate(61,103)"/>
<path d="M0 0 C2 1 2 1 2 1 Z " fill="#1F8DC4" transform="translate(99,102)"/>
<path d="M0 0 C2 1 2 1 2 1 Z " fill="#2492C8" transform="translate(59,102)"/>
<path d="M0 0 C2 1 2 1 2 1 Z " fill="#2492C9" transform="translate(55,99)"/>
<path d="" fill="#1C8DC2" transform="translate(0,0)"/>
<path d="" fill="#1C8CC3" transform="translate(0,0)"/>
<path d="" fill="#1D8CC3" transform="translate(0,0)"/>
<path d="" fill="#2D96CE" transform="translate(0,0)"/>
<path d="M0 0 C2 1 2 1 2 1 Z " fill="#2594C9" transform="translate(58,35)"/>
<path d="M0 0 C2 1 2 1 2 1 Z " fill="#2492C8" transform="translate(99,34)"/>
<path d="M0 0 C2 1 2 1 2 1 Z " fill="#2190C7" transform="translate(97,33)"/>
<path d="M0 0 C2 1 2 1 2 1 Z " fill="#289AD2" transform="translate(61,33)"/>
<path d="M0 0 C2 1 2 1 2 1 Z " fill="#2090C9" transform="translate(95,32)"/>
<path d="" fill="#0D8AD3" transform="translate(0,0)"/>
<path d="" fill="#0B8AD4" transform="translate(0,0)"/>
<path d="" fill="#1094E1" transform="translate(0,0)"/>
<path d="" fill="#0C95E4" transform="translate(0,0)"/>
<path d="" fill="#1094E1" transform="translate(0,0)"/>
<path d="" fill="#0E95E3" transform="translate(0,0)"/>
<path d="" fill="#2E9FD7" transform="translate(0,0)"/>
<path d="" fill="#2F9BD1" transform="translate(0,0)"/>
<path d="" fill="#2F91C3" transform="translate(0,0)"/>
<path d="" fill="#3391BE" transform="translate(0,0)"/>
<path d="" fill="#0C8AD3" transform="translate(0,0)"/>
<path d="" fill="#0C94E3" transform="translate(0,0)"/>
<path d="" fill="#2993CB" transform="translate(0,0)"/>
<path d="" fill="#2791C9" transform="translate(0,0)"/>
<path d="" fill="#0C95E4" transform="translate(0,0)"/>
<path d="" fill="#2790CA" transform="translate(0,0)"/>
<path d="" fill="#2892CD" transform="translate(0,0)"/>
<path d="" fill="#2792CC" transform="translate(0,0)"/>
<path d="" fill="#2293CF" transform="translate(0,0)"/>
<path d="" fill="#2691CB" transform="translate(0,0)"/>
<path d="" fill="#0597EA" transform="translate(0,0)"/>
<path d="" fill="#2490CA" transform="translate(0,0)"/>
<path d="" fill="#238EC9" transform="translate(0,0)"/>
<path d="" fill="#228DC7" transform="translate(0,0)"/>
<path d="" fill="#208CC7" transform="translate(0,0)"/>
<path d="" fill="#1F8BC6" transform="translate(0,0)"/>
<path d="" fill="#1F8BC6" transform="translate(0,0)"/>
<path d="" fill="#218BC5" transform="translate(0,0)"/>
<path d="" fill="#238CC3" transform="translate(0,0)"/>
<path d="" fill="#1495DF" transform="translate(0,0)"/>
<path d="" fill="#248BC3" transform="translate(0,0)"/>
<path d="" fill="#0C92E0" transform="translate(0,0)"/>
<path d="" fill="#3591C4" transform="translate(0,0)"/>
<path d="" fill="#0C8CD6" transform="translate(0,0)"/>
<path d="" fill="#0D8CD6" transform="translate(0,0)"/>
<path d="" fill="#0B8CD6" transform="translate(0,0)"/>
<path d="" fill="#098BD5" transform="translate(0,0)"/>
<path d="" fill="#34A3DC" transform="translate(0,0)"/>
<path d="" fill="#40ACE0" transform="translate(0,0)"/>
<path d="" fill="#3695C6" transform="translate(0,0)"/>
<path d="" fill="#3694C4" transform="translate(0,0)"/>
<path d="" fill="#0B96E6" transform="translate(0,0)"/>
<path d="" fill="#2390C6" transform="translate(0,0)"/>
<path d="" fill="#218DC5" transform="translate(0,0)"/>
<path d="" fill="#0B96E7" transform="translate(0,0)"/>
<path d="" fill="#0B95E4" transform="translate(0,0)"/>
<path d="" fill="#0B96E4" transform="translate(0,0)"/>
<path d="" fill="#0798E7" transform="translate(0,0)"/>
<path d="" fill="#0A91DD" transform="translate(0,0)"/>
<path d="" fill="#1F8DC5" transform="translate(0,0)"/>
<path d="" fill="#2392C9" transform="translate(0,0)"/>
<path d="" fill="#0B93E2" transform="translate(0,0)"/>
<path d="" fill="#2593C9" transform="translate(0,0)"/>
<path d="" fill="#0A94E2" transform="translate(0,0)"/>
<path d="" fill="#1C89C0" transform="translate(0,0)"/>
<path d="" fill="#0A94E2" transform="translate(0,0)"/>
<path d="" fill="#0A8BD5" transform="translate(0,0)"/>
<path d="" fill="#2390C8" transform="translate(0,0)"/>
<path d="" fill="#0A94E2" transform="translate(0,0)"/>
<path d="" fill="#2492C9" transform="translate(0,0)"/>
<path d="" fill="#2492CA" transform="translate(0,0)"/>
<path d="" fill="#2090C6" transform="translate(0,0)"/>
<path d="" fill="#2492CB" transform="translate(0,0)"/>
<path d="" fill="#1F92CB" transform="translate(0,0)"/>
<path d="" fill="#2093CC" transform="translate(0,0)"/>
<path d="" fill="#0B96E6" transform="translate(0,0)"/>
<path d="" fill="#0B95E3" transform="translate(0,0)"/>
<path d="" fill="#2193CB" transform="translate(0,0)"/>
<path d="" fill="#1496DC" transform="translate(0,0)"/>
<path d="" fill="#2193CB" transform="translate(0,0)"/>
<path d="" fill="#0B96E6" transform="translate(0,0)"/>
<path d="" fill="#0A8BD5" transform="translate(0,0)"/>
<path d="" fill="#0C96E4" transform="translate(0,0)"/>
<path d="" fill="#0696E5" transform="translate(0,0)"/>
<path d="" fill="#0A8BD3" transform="translate(0,0)"/>
<path d="" fill="#0F94D8" transform="translate(0,0)"/>
<path d="" fill="#1C91CA" transform="translate(0,0)"/>
<path d="" fill="#1B90C9" transform="translate(0,0)"/>
<path d="" fill="#198FC9" transform="translate(0,0)"/>
<path d="" fill="#0B93E3" transform="translate(0,0)"/>
<path d="" fill="#1C91CB" transform="translate(0,0)"/>
<path d="" fill="#1E92CD" transform="translate(0,0)"/>
<path d="" fill="#0A97E8" transform="translate(0,0)"/>
<path d="" fill="#0A93E3" transform="translate(0,0)"/>
<path d="" fill="#2295CF" transform="translate(0,0)"/>
<path d="" fill="#2396CF" transform="translate(0,0)"/>
<path d="" fill="#2296CF" transform="translate(0,0)"/>
<path d="" fill="#2296CF" transform="translate(0,0)"/>
<path d="" fill="#0A96E7" transform="translate(0,0)"/>
<path d="" fill="#2296D0" transform="translate(0,0)"/>
<path d="" fill="#2597D1" transform="translate(0,0)"/>
<path d="" fill="#2497D0" transform="translate(0,0)"/>
<path d="" fill="#2396D0" transform="translate(0,0)"/>
<path d="" fill="#2195CF" transform="translate(0,0)"/>
<path d="" fill="#2094CD" transform="translate(0,0)"/>
<path d="" fill="#0A91E0" transform="translate(0,0)"/>
<path d="" fill="#1D93CC" transform="translate(0,0)"/>
<path d="" fill="#1E93CC" transform="translate(0,0)"/>
<path d="" fill="#0A91E0" transform="translate(0,0)"/>
<path d="" fill="#1D93CC" transform="translate(0,0)"/>
<path d="" fill="#1D92CB" transform="translate(0,0)"/>
<path d="" fill="#1D92CB" transform="translate(0,0)"/>
<path d="" fill="#1C90CA" transform="translate(0,0)"/>
<path d="" fill="#1A8FC9" transform="translate(0,0)"/>
<path d="" fill="#1B90CA" transform="translate(0,0)"/>
<path d="" fill="#1B90C9" transform="translate(0,0)"/>
<path d="" fill="#1B90CA" transform="translate(0,0)"/>
<path d="" fill="#0A93E3" transform="translate(0,0)"/>
<path d="" fill="#0A8BD4" transform="translate(0,0)"/>
<path d="" fill="#1B91CA" transform="translate(0,0)"/>
<path d="" fill="#198EC9" transform="translate(0,0)"/>
<path d="" fill="#1C90CA" transform="translate(0,0)"/>
<path d="" fill="#2591C9" transform="translate(0,0)"/>
<path d="" fill="#1F91C9" transform="translate(0,0)"/>
<path d="" fill="#2590C7" transform="translate(0,0)"/>
<path d="" fill="#1F91C9" transform="translate(0,0)"/>
<path d="" fill="#088BD7" transform="translate(0,0)"/>
<path d="" fill="#2092CB" transform="translate(0,0)"/>
<path d="" fill="#2591C8" transform="translate(0,0)"/>
<path d="" fill="#2193CD" transform="translate(0,0)"/>
<path d="" fill="#2491C8" transform="translate(0,0)"/>
<path d="" fill="#2294CD" transform="translate(0,0)"/>
<path d="" fill="#2491C8" transform="translate(0,0)"/>
<path d="" fill="#2691C9" transform="translate(0,0)"/>
<path d="" fill="#0991DE" transform="translate(0,0)"/>
<path d="" fill="#2395CE" transform="translate(0,0)"/>
<path d="" fill="#2792C9" transform="translate(0,0)"/>
<path d="" fill="#2591C9" transform="translate(0,0)"/>
<path d="" fill="#2293CD" transform="translate(0,0)"/>
<path d="" fill="#2691C8" transform="translate(0,0)"/>
<path d="" fill="#2293CC" transform="translate(0,0)"/>
<path d="" fill="#2491C7" transform="translate(0,0)"/>
<path d="" fill="#0995E4" transform="translate(0,0)"/>
<path d="" fill="#2294CC" transform="translate(0,0)"/>
<path d="" fill="#2692C8" transform="translate(0,0)"/>
<path d="" fill="#2293CC" transform="translate(0,0)"/>
<path d="" fill="#2595CC" transform="translate(0,0)"/>
<path d="" fill="#2295CE" transform="translate(0,0)"/>
<path d="" fill="#098BD6" transform="translate(0,0)"/>
<path d="" fill="#0A95E4" transform="translate(0,0)"/>
<path d="" fill="#098BD4" transform="translate(0,0)"/>
<path d="" fill="#088BD5" transform="translate(0,0)"/>
<path d="" fill="#0A96E5" transform="translate(0,0)"/>
<path d="" fill="#088BD5" transform="translate(0,0)"/>
<path d="" fill="#0A96E7" transform="translate(0,0)"/>
<path d="" fill="#2F96C6" transform="translate(0,0)"/>
<path d="" fill="#0A91DF" transform="translate(0,0)"/>
<path d="" fill="#0A97E6" transform="translate(0,0)"/>
<path d="" fill="#0A97E6" transform="translate(0,0)"/>
<path d="" fill="#0A8BD3" transform="translate(0,0)"/>
<path d="" fill="#0B8BD5" transform="translate(0,0)"/>
<path d="" fill="#0A8BD3" transform="translate(0,0)"/>
<path d="" fill="#0C8CD4" transform="translate(0,0)"/>
<path d="" fill="#0B8CD5" transform="translate(0,0)"/>
<path d="" fill="#0A8CD6" transform="translate(0,0)"/>
<path d="" fill="#0B8BD5" transform="translate(0,0)"/>
</svg>
